<svg xmlns="http://www.w3.org/2000/svg" xmlns:xlink="http://www.w3.org/1999/xlink" version="1.1" style="width:0;height:0;position:absolute;overflow:hidden;"><defs>
<symbol viewBox="0 0 22.62900161743164 23.972002029418945" aria-labelledby="absi-dev-angular_simple-title" id="si-dev-angular_simple"><title id="absi-dev-angular_simple-title">icon angular_simple</title><path d="M11.252 7.055l-2.057 4.879h4.433L11.27 7.01l-.019.044zM11.279 0L0 3.969l1.782 14.777 9.508 5.226 9.557-5.297 1.782-14.776L11.278 0zm4.78 17.549l-1.531-3.545h-6.25L6.88 17.501l-2.601.048 6.973-15.513 7.216 15.513h-2.41z"/></symbol>
<symbol viewBox="0 0 22.14200210571289 25.78900146484375" aria-labelledby="adsi-dev-apple-title" id="si-dev-apple"><title id="adsi-dev-apple-title">icon apple</title><path d="M18.69 13.671c-.033-3.259 2.657-4.822 2.777-4.901-1.512-2.211-3.867-2.514-4.705-2.548-2.002-.204-3.91 1.18-4.926 1.18-1.014 0-2.583-1.15-4.244-1.121-2.185.033-4.199 1.271-5.323 3.227C0 13.444 1.689 19.277 3.9 22.471c1.081 1.561 2.37 3.318 4.061 3.254 1.63-.064 2.245-1.055 4.215-1.055s2.524 1.055 4.248 1.021c1.753-.032 2.864-1.591 3.936-3.159 1.24-1.814 1.751-3.57 1.782-3.659-.038-.017-3.416-1.312-3.451-5.202zm-3.24-9.563c.897-1.089 1.504-2.602 1.34-4.108-1.294.053-2.861.86-3.79 1.948-.832.965-1.561 2.502-1.365 3.981 1.444.112 2.916-.734 3.816-1.821z"/></symbol>
<symbol viewBox="0 0 23.099998474121094 20.143001556396484" aria-labelledby="aqsi-dev-bower-title" id="si-dev-bower"><title id="aqsi-dev-bower-title">icon bower</title><path d="M8.757 3.932a1.182 1.182 0 1 0 0 2.364 1.182 1.182 0 0 0 0-2.364zm0 1.086c-.38 0-.688-.192-.688-.428s.308-.428.688-.428c.38 0 .688.192.688.428s-.308.428-.688.428zm13.464 4.709c-1.165-1.12-6.992-1.819-8.83-2.022.089-.21.165-.428.228-.652.251-.11.521-.212.801-.297.034.101.195.486.286.669 3.697.102 3.887-2.747 4.037-3.528.147-.763.14-1.501 1.408-2.849-1.889-.551-4.606.853-5.516 2.943a5.645 5.645 0 0 0-1.024-.281C13.368 2.73 12.103 0 8.784 0c-2.15 0-4.318.888-5.948 2.436A8.892 8.892 0 0 0 .785 5.38C.264 6.589 0 7.92 0 9.337c0 4.934 3.368 9.257 5.271 9.257.831 0 1.546-.622 1.714-1.18.141.383.572 1.572.714 1.874.21.448 1.179.835 1.603.37.545.303 1.546.485 2.091-.323 1.05.222 1.979-.404 1.999-1.152.515-.027.768-.751.656-1.327-.083-.424-.969-1.947-1.315-2.472.684.557 2.418.714 2.628 0 1.103.866 2.823.412 2.959-.293 1.341.348 2.878-.417 2.626-1.343 2.154-.149 1.878-2.44 1.274-3.021zm-5.609-3.798c-.567-.223-1.287-.364-1.791-.364-.715 0-1.151.405-1.824.405-.141 0-.478.001-.749-.096.178.187.399.288.828.288.256 0 .764-.131 1.175-.254.006.087.015.172.027.258-.77.184-1.578.674-1.812.801-.52-1.149-.073-2.235.34-2.736 1.852.004 3.348 1.276 3.805 1.698zm.801-.086l-.283-.265a8.265 8.265 0 0 0-.906-.738c.464-.92 1.047-1.925 1.783-2.547-.81.327-1.611 1.303-2.084 2.346a7.206 7.206 0 0 0-.733-.409c.66-1.409 2.193-2.585 3.883-2.677-1.132 1.027-.707 3.075-1.661 4.289zm-2.325.96c-.125-.271-.251-.72-.236-.984.21-.005.614.074.678.089a3.565 3.565 0 0 0-.038.431c.04-.069.151-.306.196-.4.404.077.935.206 1.246.351-.366.237-.987.494-1.847.512zm-2.523-3.176c-1.477 1.497-.894 3.391-.356 4.246-.765 1.273-2.269 2.143-4.016 2.539 1.961 0 3.115-.505 3.786-.999.428-.316.66-.627.779-.8 2.908.188 7.512 1.125 7.961 1.428.18.122.366.391.394.649-2.185-.306-6.124-.628-7.155-.682.732.104 6.072 1.115 6.998 1.352-.282.459-.924.784-1.891.558.523.712-.492 1.566-1.906 1.096.311.699-.947 1.328-2.378.6.018.699-1.775.78-2.483.007.014.092.098.268.134.346-.228 2.042-1.901 3.309-3.614 3.309-4.194 0-7.848-3.407-7.848-7.939C.97 4.546 4.511.97 8.784.97c2.448 0 3.554 1.927 3.781 2.657z"/></symbol>
<symbol viewBox="0 0 19.5 11.726000785827637" aria-labelledby="basi-dev-code-title" id="si-dev-code"><title id="basi-dev-code-title">icon code</title><path d="M4.817 0L0 5.863l4.817 5.862 1.139-1.874L2.71 5.862l3.246-3.989zm2.108 11.585h2.114L12.4.108h-2.115zM14.683 0l-1.139 1.874 3.246 3.989-3.246 3.989 1.139 1.874L19.5 5.864z"/></symbol>
<symbol viewBox="0 0 22.514001846313477 25.533000946044922" aria-labelledby="bksi-dev-css3-title" id="si-dev-css3"><title id="bksi-dev-css3-title">icon css3</title><path d="M11.274 17.525zM0 0l2.049 22.981 9.194 2.552 9.22-2.556L22.514 0H0zm18.257 5.256l-.693 7.767-.48 5.359-.042.476-5.781 1.603-5.773-1.603-.395-4.426h2.829l.201 2.248 3.142.847.008-.002h.002l3.134-.846.329-3.655H8.159l-.056-.633-.129-1.429-.067-.756h7.081l.258-2.886H4.46l-.056-.634-.129-1.429-.067-.756h14.118l-.068.756z"/></symbol>
<symbol viewBox="0 0 19.28399658203125 22.496999740600586" aria-labelledby="bpsi-dev-database-title" id="si-dev-database"><title id="bpsi-dev-database-title">icon database</title><path d="M9.641 22.497C4.318 22.497 0 21.057 0 19.283v-3.214c0-.279.14-.545.341-.803 1.075 1.384 4.813 2.41 9.301 2.41s8.226-1.026 9.301-2.41c.201.259.34.524.34.803v3.214c0 1.773-4.318 3.214-9.641 3.214zm0-6.428C4.318 16.069 0 14.628 0 12.855V9.641c0-.17.064-.336.151-.5.049-.103.113-.204.19-.304 1.075 1.383 4.813 2.41 9.301 2.41s8.226-1.027 9.301-2.41c.077.1.141.201.19.304.086.164.151.33.151.5v3.214c0 1.773-4.318 3.214-9.641 3.214zm0-6.427C4.318 9.642 0 8.202 0 6.428V3.214C0 1.44 4.318 0 9.641 0s9.641 1.44 9.641 3.214v3.214c0 1.774-4.318 3.214-9.641 3.214zm0-8.034c-3.55 0-6.427.718-6.427 1.607s2.878 1.607 6.427 1.607c3.55 0 6.427-.718 6.427-1.607S13.19 1.608 9.641 1.608z"/></symbol>
<symbol viewBox="0 0 31.840999603271484 11.03499984741211" aria-labelledby="bssi-dev-django-title" id="si-dev-django"><title id="bssi-dev-django-title">icon django</title><path d="M3.774 1.309v1.312l-.098-.018a3.748 3.748 0 0 0-1.789.119C.678 3.126 0 4.197.061 5.609c.029.633.156 1.069.43 1.48.391.589 1.024.939 1.95 1.085.681.108 2.066.032 3.003-.166l.071-.016V.001H3.773V1.31zM3.65 3.985l.124.032v2.784l-.177.016c-.689.066-1.143-.05-1.433-.37-.227-.248-.343-.602-.343-1.037 0-.771.367-1.293 1.013-1.441.187-.042.625-.034.816.016zM6.545.884v.884h1.742L8.282.889 8.274.013 7.411.005 6.545 0v.884zm4.724 1.665a5.62 5.62 0 0 0-1.8.441l-.153.069v.665c0 .52.008.66.034.649.932-.399 1.393-.509 2.043-.491.274.008.333.018.396.066.127.092.166.206.166.478 0 .135-.005.245-.013.245-.076 0-.591.066-.837.108-1.264.211-1.919.644-2.093 1.375a3.13 3.13 0 0 0 0 .966c.085.354.264.618.549.8.591.383 1.483.422 3.813.166l.164-.018V6.086c0-1.09-.013-2.09-.026-2.222-.079-.742-.433-1.114-1.206-1.261a6.252 6.252 0 0 0-1.037-.053zm.765 3.835v.578l-.23.034c-.359.053-.839.047-.99-.011-.275-.106-.383-.414-.243-.684.076-.148.264-.269.544-.351.137-.04.726-.137.86-.142l.058-.003v.578zm4.671-3.832c-.626.026-1.56.177-2.222.354l-.1.026v5.223h1.742l.005-2.053.008-2.05.185-.05c.132-.034.285-.05.541-.053.322-.003.37.003.496.061.171.076.28.198.34.377.042.127.047.303.055 1.953l.008 1.816h1.715l-.011-2.064c-.008-1.855-.013-2.085-.053-2.235A1.478 1.478 0 0 0 19 3.139c-.338-.34-.792-.517-1.486-.575a4.847 4.847 0 0 0-.81-.011zm11.597.021c-1.016.185-1.744.794-2.05 1.723-.145.435-.185.744-.169 1.296.011.33.029.53.066.692.216.921.789 1.567 1.644 1.858.731.251 1.739.209 2.404-.1.85-.39 1.37-1.156 1.496-2.196.148-1.203-.251-2.291-1.032-2.829-.34-.235-.612-.346-1.058-.433-.306-.061-1.003-.066-1.301-.011zm.971 1.412c.28.103.491.375.607.778.053.182.061.272.061.647 0 .372-.008.464-.061.641-.116.406-.293.644-.581.779-.129.061-.185.071-.401.071-.214 0-.272-.011-.396-.069-.285-.132-.456-.346-.575-.705-.09-.274-.114-.91-.047-1.235.079-.377.237-.652.478-.816a.996.996 0 0 1 .916-.092zm-5.93-1.409c-.694.074-1.214.201-1.668.409-1.082.496-1.644 1.399-1.644 2.636 0 1.214.554 2.093 1.531 2.433.554.193 1.301.201 1.829.018.129-.045.238-.076.243-.071.021.021-.04.52-.082.655-.135.451-.404.707-.881.837-.245.069-1.079.069-1.399 0a4.983 4.983 0 0 1-.916-.298l-.193-.087v1.599l.311.095c.528.161.974.23 1.544.23 1.301.003 2.227-.398 2.771-1.198.243-.359.399-.815.473-1.396.037-.296.045-3.346.011-4.053l-.018-.378.203.008.206.011.288-.602c.158-.33.282-.607.277-.615-.024-.021-.549-.116-.955-.171-.296-.04-.583-.055-1.111-.063a19.79 19.79 0 0 0-.818.003zm.261 1.784c.008.238.021.86.029 1.385l.016.955-.1.027c-.39.105-.776.105-1.045.005-.449-.172-.676-.557-.699-1.182-.018-.523.082-.858.343-1.132.288-.304.731-.467 1.304-.483l.137-.003.016.428zm-17.059.317c0 2.99-.037 3.381-.362 4.014-.203.396-.578.726-1.14 1.008-.143.071-.187.103-.158.119.021.013.383.185.802.383l.765.362.161-.082c1.024-.53 1.488-1.272 1.621-2.602.018-.174.037-1.264.045-2.752l.016-2.46h-1.75v2.011z"/></symbol>
<symbol viewBox="0 0 22.419998168945312 20.842002868652344" aria-labelledby="bzsi-dev-dropbox-title" id="si-dev-dropbox"><title id="bzsi-dev-dropbox-title">icon dropbox</title><path d="M0 11.602l6.595 4.304 4.616-3.849-6.65-4.104zM6.595 0L0 4.301l4.56 3.651 6.65-4.105zM22.42 4.301L15.825 0 11.21 3.848l6.649 4.105zm-11.21 7.756l4.615 3.849 6.595-4.304-4.56-3.65zm.014.828l-4.629 3.839-1.981-1.294v1.451l6.609 3.961 6.609-3.961V15.43l-1.981 1.294z"/></symbol>
<symbol viewBox="0 0 23.04400062561035 22.124916076660156" aria-labelledby="chsi-dev-firefox-title" id="si-dev-firefox"><title id="chsi-dev-firefox-title">icon firefox</title><path d="M18.851 2.645a10.889 10.889 0 0 0-.189-.182l.189.182zM.507 8.72s-.032.039-.08.104l-.02.107a.967.967 0 0 1 .101-.211zm3.179-5.135l.061-.063A10.394 10.394 0 0 1 11.124.467c1.33 0 2.621.246 3.844.73.714.124 1.665.362 2.458.813A10.843 10.843 0 0 0 11.124.004 10.864 10.864 0 0 0 3.35 3.266c.092.112.203.22.335.32zm3.869 8.195a1.322 1.322 0 0 1-.196-.201 4.125 4.125 0 0 0-.031.499c0 .328.041.68.153 1.032s.294.698.581 1.02c.191.216.43.42.728.606l-.017.027c.56.01 1.472-.001 1.934-.155.695-.232 1.808-1.113 1.808-1.113.278-.278.603-.14.881-.14s.371-.416 0-.834c-.371-.417-1.669-.835-2.643-.185s-2.365.139-3.199-.556zm.672-6.12a3.286 3.286 0 0 0-.116.844c0 .322.054.668.205 1.009a4.516 4.516 0 0 0 .546.928c.131-.12.283-.241.408-.324.278-.185 1.345-.696 1.484-.835s.417-.881.185-1.113c-.232-.232-1.716-.093-2.179-.185-.195-.04-.382-.177-.533-.323zm.299 4.538a.032.032 0 0 0 .002.006l.005-.011-.007.005zm13.727-2.081c0 .377-.34.905-.406 1.004.014-.035.035-.145.035-.494 0-.51.139-1.808-.51-3.246s-1.623-2.133-1.623-2.133v.325c-.139-.464-1.437-1.345-1.437-1.345v.464c2.318 2.133 2.55 3.617 2.55 3.617-.417-1.345-1.623-2.365-2.643-3.338s-3.153-1.484-3.153-1.484c2.272 1.298 3.385 3.338 3.385 3.338-1.159-1.113-2.087-1.02-2.087-1.02.696.51 1.02 1.066 1.669 2.087s.603 3.43.603 3.43c-.325-.787-.974-1.112-.974-1.112s.139 1.39.232 2.179c.093.788-.325 2.272-.325 2.272 0-.556-.325-.696-.325-.696s.093.325-.371 1.808c-.464 1.484-1.345 1.994-1.484 1.947s0-.278 0-.278-.232-.185-.556.325c-.274.43-.746.662-.886.725.151-.086.191-.4.191-.4s-.325.185-1.808.417c-1.484.232-2.179-.417-2.179-.417.139-.14.788 0 .788 0 0-.14-.742-.371-1.484-.464-.603-.075-.896-.355-1.035-.58a3.74 3.74 0 0 1-.705-.61 3.235 3.235 0 0 1-.517-.782 3.693 3.693 0 0 1-.334-1.578c0-.46.072-.865.143-1.157s.144-.471.147-.48l.01.005c.087-.268.258-.483.46-.571a1.968 1.968 0 0 0-.196-.12 1.547 1.547 0 0 0-.983-.172c-.338.053-.662.22-.949.44a2.135 2.135 0 0 0-.64.842c-.145.332-.218.699-.218 1.067s.072.739.206 1.088c.133.349.327.677.561.973s.508.564.805.802c-.31-.221-.6-.473-.854-.761s-.471-.611-.629-.965c-.159-.354-.257-.738-.279-1.131s.033-.793.173-1.167a2.42 2.42 0 0 1 .677-.995c.153-.128.319-.244.499-.34s.376-.171.582-.213c.206-.042.421-.05.632-.021s.414.093.603.183a2.66 2.66 0 0 1 .753.54c.036.036.072.074.107.113.029.033.056.063.085.1.165-.428.049-1.144.022-1.294-.087-.124-.211-.28-.351-.503a5.163 5.163 0 0 1-.336-.637 2.942 2.942 0 0 1-.245-1.197 3.793 3.793 0 0 1 .245-1.32c.262-1.14 1.517-2.26 1.517-2.26-1.762-.232-2.967 1.39-2.967 1.39l-.015-.008c-.125.138-.549.634-.588 1.029 0 0 .015-.71.192-1.206-.672-.214-1.464-.102-1.869-.018l.003.015c-.416.075-.796.235-1.133.436s-.631.444-.873.679a5.284 5.284 0 0 0-.758.912l-.013-.008C.537 7.386 0 10.023 0 10.023c.093-.417.51-.927.51-.927-.464.696-.371 3.895-.371 3.895 0-.51.278-1.113.278-1.113.093 1.066.556 4.498 3.57 7.094S9.551 21.8 9.551 21.8c-.603-.186-.742-.464-.742-.464 1.947.788 3.153.649 3.153.649-.325-.185-.371-.325-.371-.325 2.087.093 4.869-.65 5.518-1.113s1.206-1.391 1.206-1.391c1.669-.788 2.828-2.411 3.153-3.246s0-1.716 0-1.716 0-.046.788-1.808 0-4.266 0-4.266zM2.785 4.17c.196-.117.407-.223.632-.311-.893-.744-.823-1.723-.823-1.723-.893.862-1.111 2.318-1.157 3.198l.038-.045c.302-.348.743-.78 1.31-1.12z"/></symbol>
<symbol viewBox="0 0 22.83895492553711 22.837730407714844" aria-labelledby="clsi-dev-git-title" id="si-dev-git"><title id="clsi-dev-git-title">icon git</title><path d="M22.271 10.415L12.423.567a1.453 1.453 0 0 0-2.054 0L8.324 2.612l2.594 2.594a1.725 1.725 0 0 1 2.185 2.199l2.5 2.5a1.728 1.728 0 1 1-1.035.974l-2.332-2.332v6.136a1.73 1.73 0 1 1-1.421-.05V8.44a1.729 1.729 0 0 1-.938-2.266L7.32 3.616.567 10.368a1.454 1.454 0 0 0 0 2.055l9.849 9.848a1.453 1.453 0 0 0 2.054 0l9.802-9.802a1.454 1.454 0 0 0 0-2.055z"/></symbol>
<symbol viewBox="0 0 18.333999633789062 25.6669979095459" aria-labelledby="cmsi-dev-git_branch-title" id="si-dev-git_branch"><title id="cmsi-dev-git_branch-title">icon git_branch</title><path d="M14.669 3.666a3.67 3.67 0 0 0-3.667 3.667c0 1.353.741 2.523 1.833 3.159V11s0 3.667-3.667 3.667c-1.52 0-2.711.326-3.667.825V6.826a3.65 3.65 0 0 0 1.833-3.159C7.334 1.643 5.691 0 3.667 0S0 1.643 0 3.667a3.65 3.65 0 0 0 1.833 3.159v12.016A3.65 3.65 0 0 0 0 22c0 2.023 1.643 3.667 3.667 3.667S7.334 24.023 7.334 22c0-.96-.378-1.826-.981-2.482.534-.655 1.401-1.185 2.815-1.185 7.276 0 7.333-7.333 7.333-7.333v-.508a3.653 3.653 0 0 0 1.833-3.159 3.67 3.67 0 0 0-3.667-3.667zm-11-1.833c1.014 0 1.833.819 1.833 1.833s-.819 1.833-1.833 1.833-1.833-.819-1.833-1.833.819-1.833 1.833-1.833zm0 22A1.832 1.832 0 1 1 5.502 22a1.832 1.832 0 0 1-1.833 1.833zm11-14.667c-1.013 0-1.833-.819-1.833-1.833s.82-1.833 1.833-1.833 1.833.819 1.833 1.833-.82 1.833-1.833 1.833z"/></symbol>
<symbol viewBox="0 0 22.436996459960938 21.97500228881836" aria-labelledby="ctsi-dev-github_badge-title" id="si-dev-github_badge"><title id="ctsi-dev-github_badge-title">icon github_badge</title><path d="M11.219 0C5.023 0 0 5.023 0 11.219c0 4.957 3.214 9.162 7.673 10.645.561.103.766-.244.766-.54 0-.267-.01-1.152-.016-2.088-3.12.678-3.779-1.323-3.779-1.323-.511-1.296-1.246-1.641-1.246-1.641-1.02-.696.077-.682.077-.682 1.126.078 1.72 1.156 1.72 1.156 1.001 1.715 2.627 1.219 3.265.931.102-.723.392-1.219.712-1.498-2.49-.283-5.11-1.246-5.11-5.545 0-1.226.438-2.225 1.154-3.011-.114-.285-.501-1.426.111-2.97 0 0 .941-.301 3.085 1.15.894-.25 1.854-.373 2.807-.377.953.004 1.913.129 2.809.379 2.14-1.453 3.083-1.15 3.083-1.15.613 1.545.227 2.685.112 2.969.719.785 1.153 1.785 1.153 3.011 0 4.31-2.624 5.259-5.123 5.537.404.348.761 1.03.761 2.076 0 1.5-.015 2.709-.015 3.079 0 .299.204.648.772.538 4.455-1.486 7.666-5.69 7.666-10.645 0-6.195-5.023-11.219-11.219-11.219z"/></symbol>
<symbol viewBox="0 0 22.059003829956055 22.0570011138916" aria-labelledby="cysi-dev-google_analytics-title" id="si-dev-google_analytics"><title id="cysi-dev-google_analytics-title">icon google_analytics</title><path d="M22.059 20.11a1.953 1.953 0 0 1-1.947 1.947H1.949A1.953 1.953 0 0 1 .002 20.11V1.947C.002.876.878 0 1.949 0h18.163c1.071 0 1.947.876 1.947 1.947V20.11zm0-13.18l-1.992-1.342a2.344 2.344 0 1 0-4.184.828l-4.307 6.586a2.333 2.333 0 0 0-2.059.488l-2.883-1.659c.015-.106.025-.213.025-.323a2.344 2.344 0 1 0-4.506.906L0 14.411v2.125l3.198-2.967a2.334 2.334 0 0 0 2.717-.354l2.813 1.619a2.343 2.343 0 1 0 4.155-.986l4.277-6.54a2.332 2.332 0 0 0 2.065-.409l2.833 1.909V6.93z"/></symbol>
<symbol viewBox="0 0 22.59400177001953 19.8489990234375" aria-labelledby="czsi-dev-google_drive-title" id="si-dev-google_drive"><title id="czsi-dev-google_drive-title">icon google_drive</title><path d="M7.946 14.065H7.82l-.061.109-3.245 5.675h14.773l.061-.109 3.246-5.674h-.373zm7.924-1.352l.062.108h.126l6.536-.028-.187-.322L15.208 0h-.126L8.545.027l.187.322zm-5.128-6.286l-.063-.109L7.387.672l-.186.322L0 13.464l.064.109 3.292 5.648.186-.323L10.68 6.535z"/></symbol>
<symbol viewBox="0 0 14.592999458312988 31.75" aria-labelledby="ddsi-dev-gulp-title" id="si-dev-gulp"><title id="ddsi-dev-gulp-title">icon gulp</title><path d="M13.357.15c-.031.025-.906.931-1.938 2.019L9.544 4.144l-.75 2.925-2.094.037c-3.894.081-6.194.394-6.619.9-.081.094-.069.125.075.25 1.019.875 9.062 1.131 12.781.412 1.319-.256 1.656-.575.938-.881-.544-.237-2.538-.563-3.431-.563-.244 0-.3-.019-.3-.112 0-.056.137-.631.3-1.269l.294-1.162 1.75-1.85c.963-1.019 1.756-1.9 1.769-1.95.063-.281-.681-.881-.9-.731zM.144 8.813c0 .188.756 7.3.794 7.412.012.05.075-.044.137-.225.556-1.556 1.662-2.875 2.6-3.094.456-.106.8.006 1.169.375.406.406.481.844.169 1.012-.156.081-.306-.031-.506-.394-.431-.769-1.231-.363-2.094 1.075-.912 1.512-1.15 3.188-.456 3.188.256 0 .875-.488 1.306-1.025.294-.375.406-.581.569-1.063.106-.325.231-.625.281-.662s.162-.063.262-.05c.162.019.175.044.194.313.012.206-.037.456-.175.844-.181.512-.387 1.169-.775 2.456-.087.294-.2.594-.256.669-.137.194-.331.181-.419-.019-.063-.131-.044-.269.131-.856.113-.387.225-.756.244-.825.019-.081-.125.025-.394.275-.625.581-1.238.825-1.6.631-.106-.056-.119-.044-.119.106 0 .475.45 4.738.506 4.806.188.225 1.519.606 2.869.819 1.031.162 3.969.162 5 0 .887-.144 1.856-.369 2.325-.544.662-.244.581.025.956-3.219.181-1.581.325-2.887.313-2.894-.012-.012-.213.137-.444.331-.5.425-.831.588-1.2.594-.331 0-.5-.081-.575-.287-.088-.219.031-.475.506-1.063.531-.656.619-.781.619-.913 0-.281-.644.012-1.012.463-.119.15-.294.394-.387.544-.212.331-.762 1.587-1.037 2.369-.213.606-.412.887-.619.887-.119 0-.319-.15-.319-.238 0-.163.2-.669.569-1.475.238-.512.431-.944.431-.956s-.119.069-.269.188c-.356.294-.75.481-.994.481-.238 0-.488-.15-.488-.287 0-.113.012-.119-.381.1-.594.325-.931.206-.931-.338v-.25l-.256.269c-.469.481-1.106.65-1.456.375-.225-.175-.219-.588.019-1.3.431-1.275.762-1.775 1.056-1.587.181.113.15.294-.137.887-.494 1.019-.525 1.5-.087 1.375.419-.119.919-.775 1.269-1.65.094-.244.212-.488.269-.55.137-.156.344-.113.413.087.044.131 0 .306-.244.906-.2.488-.306.838-.306 1.025-.006.269 0 .281.175.269.225-.019.587-.256.637-.425.194-.631 1.637-4.156 1.75-4.281.125-.125.175-.144.319-.088.106.037.181.113.194.194.012.075-.106.425-.262.781-.613 1.419-1.412 3.469-1.412 3.625 0 .1.031.175.063.175.15 0 .563-.262 1.012-.644.4-.35.494-.463.581-.744.238-.725.412-.931.669-.794.1.056.119.113.094.281-.019.119-.019.213 0 .213s.162-.113.313-.256c.475-.431.881-.538 1.256-.306.175.106.2.156.2.394 0 .325-.25.769-.775 1.387-.194.225-.35.438-.35.475 0 .031.063.056.144.056.137 0 1.188-.806 1.419-1.088.069-.087.213-1.238.544-4.281.244-2.287.444-4.169.431-4.175-.006-.012-.169.037-.363.106-.488.169-1.544.35-2.813.481-1.375.137-6.031.156-7.394.031-1.269-.119-2.494-.313-3.013-.481l-.456-.144v.137zm1.875 15.506c0 .012.2.363.438.775l.444.756.181 2.512.188 2.519.188.162c.469.4 1.594.625 3.344.663 1.988.044 3.537-.206 4.044-.663l.2-.175.144-2.537.144-2.531.406-.713c.225-.387.406-.725.406-.75 0-.019-.188.025-.425.106-.844.287-2.488.544-3.95.625-1.625.088-4.144-.219-5.419-.662-.181-.063-.331-.1-.331-.088z"/></symbol>
<symbol viewBox="0 0 17.14900016784668 26.02899932861328" aria-labelledby="dgsi-dev-heroku-title" id="si-dev-heroku"><title id="dgsi-dev-heroku-title">icon heroku</title><path d="M.001 6.653c0 3.552.097 6.459.226 6.459.097 0 1.776-.517 3.746-1.13 2.68-.904 3.972-1.13 5.361-1.066l1.808.097.097 7.492.065 7.524h3.875v-7.88c0-7.653-.032-7.879-.743-8.945-1.292-1.938-4.618-2.358-8.752-1.13l-1.486.452V.194H0v6.459zm11.142-4.101a94.115 94.115 0 0 0-1.389 2.551c-.065.161.807.258 1.938.258h2.034l1.162-1.873C17.116 0 17.149.194 14.63.194h-2.196l-1.292 2.357zM.001 21.992c0 2.034.129 3.714.258 3.714s1.066-.839 2.099-1.873l1.841-1.873-1.873-1.841C1.293 19.118.356 18.278.227 18.278s-.226 1.679-.226 3.714z"/></symbol>
<symbol viewBox="0 0 22.671001434326172 25.75" aria-labelledby="dhsi-dev-html5-title" id="si-dev-html5"><title id="dhsi-dev-html5-title">icon html5</title><path d="M.001 0l2.063 23.176 9.258 2.574 9.284-2.578L22.671 0H0zm4.286 5.5l-.068-.763h7.107v2.842H7.321l.259 2.911h3.746v2.842H4.985l-.698-7.833zm13.567 5.754l-.667 7.483-.043.48-5.822 1.616-5.814-1.616-.398-4.463h2.849l.202 2.267 3.163.854 3.165-.856.329-3.686h-3.485v-2.842h6.587l-.069.763zm.514-5.754l-.129 1.441-.057.639h-6.846V4.738h7.1l-.068.762z"/></symbol>
<symbol viewBox="0 0 31.29599952697754 31.29599952697754" aria-labelledby="dzsi-dev-js_badge-title" id="si-dev-js_badge"><title id="dzsi-dev-js_badge-title">icon js_badge</title><path d="M0 0v31.296h31.296V0H0zm16.334 26.772c-.461.937-1.342 1.553-2.362 1.85-1.568.36-3.067.155-4.183-.515-.747-.458-1.33-1.163-1.725-1.975.794-.485 1.586-.973 2.38-1.458.021.009.083.122.167.268.303.509.565.869 1.08 1.121.506.172 1.615.283 2.044-.607.262-.452.178-1.936.178-3.545 0-2.529.012-5.016.012-7.576h2.927c0 2.688.015 5.383 0 8.067.006 1.645.149 3.14-.518 4.369zm12.144-.827c-1.017 3.481-6.691 3.594-8.957 1.294-.479-.541-.779-.824-1.065-1.449 1.205-.693 1.205-.693 2.377-1.371.637.979 1.226 1.517 2.285 1.737 1.437.175 2.883-.318 2.559-1.844-.333-1.247-2.942-1.55-4.718-2.883-1.803-1.211-2.225-4.153-.744-5.834.494-.622 1.336-1.086 2.219-1.309l.922-.119c1.77-.036 2.877.431 3.689 1.339.226.229.41.476.756 1.012-.943.601-.94.595-2.291 1.47-.289-.622-.767-1.012-1.273-1.181-.785-.238-1.776.021-1.981.851-.071.256-.056.494.057.916.318.726 1.386 1.041 2.344 1.481 2.758 1.119 3.689 2.317 3.918 3.745.22 1.229-.054 2.026-.095 2.145z"/></symbol>
<symbol viewBox="0 0 22.730003356933594 22.10999870300293" aria-labelledby="etsi-dev-mysql-title" id="si-dev-mysql"><title id="etsi-dev-mysql-title">icon mysql</title><path d="M.564.483C0 1.047.141 1.696 1.128 3.162c.508.761 1.1 1.946 1.326 2.623.226.705.677 1.664.987 2.143.564.79.564.959.197 2.397-.226.902-.31 2.031-.197 2.736.169 1.185 1.128 2.905 1.72 3.102.508.169 1.241-.733 1.269-1.551 0-.705.028-.733.338-.226.536.874 2.228 2.735 2.369 2.594.056-.056-.31-.79-.846-1.607-.508-.846-1.1-1.946-1.325-2.454-.31-.846-.423-.902-.79-.508-.226.226-.508.874-.592 1.466-.226 1.354-.733 1.523-1.128.367s-.395-3.131 0-4.484c.282-.931.254-1.184-.226-1.89-.31-.423-.79-1.438-1.044-2.256-.254-.79-.846-1.974-1.325-2.595-1.1-1.551-1.1-2.115.056-1.89.479.085 1.213.423 1.664.733.423.31 1.156.564 1.607.564 1.354 0 3.723 1.326 5.443 3.046 1.326 1.325 2.002 2.397 3.441 5.302 1.692 3.44 1.833 3.638 2.877 3.976 1.241.423 3.835 2.002 3.835 2.341 0 .113-.649.282-1.438.338-2.115.226-2.313.62-.931 1.861.649.564 1.862 1.438 2.736 1.918l1.579.902-.733-.931c-.423-.508-1.297-1.297-1.974-1.72s-1.213-.874-1.213-.987c0-.113.479-.31 1.072-.395 1.579-.282 2.03-.423 2.03-.705 0-.423-2.848-2.566-4.202-3.159-1.156-.536-1.297-.762-2.792-3.835-1.326-2.82-1.861-3.61-3.553-5.302-2.171-2.171-3.666-3.102-5.584-3.384-.649-.113-1.551-.451-1.946-.733C2.904.254 1.015 0 .563.48z"/></symbol>
<symbol viewBox="0 0 22.365001678466797 25.300729751586914" aria-labelledby="ezsi-dev-nodejs_small-title" id="si-dev-nodejs_small"><title id="ezsi-dev-nodejs_small-title">icon nodejs_small</title><path d="M11.177 25.3a1.94 1.94 0 0 1-.969-.259l-3.086-1.826c-.46-.257-.235-.349-.083-.402.614-.213.739-.262 1.394-.635.069-.038.159-.024.231.018l2.37 1.407a.304.304 0 0 0 .287 0l9.241-5.333a.292.292 0 0 0 .141-.25V7.355a.3.3 0 0 0-.143-.255l-9.237-5.329a.29.29 0 0 0-.285 0L1.803 7.102a.296.296 0 0 0-.146.253v10.666c0 .102.056.198.145.247l2.532 1.462c1.374.687 2.215-.122 2.215-.935V8.265c0-.149.12-.266.269-.266H7.99c.146 0 .267.117.267.266v10.53c0 1.833-.998 2.885-2.736 2.885-.534 0-.955 0-2.129-.579L.969 19.706A1.953 1.953 0 0 1 0 18.02V7.355c0-.693.371-1.339.969-1.684l9.242-5.34a2.023 2.023 0 0 1 1.942 0l9.241 5.34c.599.346.971.992.971 1.684V18.02c0 .693-.372 1.337-.971 1.686l-9.241 5.335a1.942 1.942 0 0 1-.973.259zm2.855-7.348c-4.045 0-4.892-1.857-4.892-3.414 0-.148.118-.266.266-.266h1.195c.133 0 .245.096.265.226.18 1.216.717 1.831 3.164 1.831 1.946 0 2.775-.441 2.775-1.473 0-.596-.234-1.037-3.26-1.334-2.528-.25-4.093-.809-4.093-2.831 0-1.865 1.572-2.977 4.207-2.977 2.961 0 4.425 1.027 4.611 3.233a.27.27 0 0 1-.267.291h-1.2a.266.266 0 0 1-.259-.209c-.288-1.28-.988-1.689-2.886-1.689-2.126 0-2.373.74-2.373 1.295 0 .673.292.869 3.161 1.248 2.84.375 4.19.907 4.19 2.902 0 2.014-1.678 3.167-4.606 3.167z"/></symbol>
<symbol viewBox="0 0 31.361000061035156 12.254999160766602" aria-labelledby="fasi-dev-npm-title" id="si-dev-npm"><title id="fasi-dev-npm-title">icon npm</title><path d="M0 5.247v5.248h8.736v1.76h6.976v-1.76h15.649V0H.001v5.248zm8.735 0v3.488h-1.76V3.519H5.278v5.216H1.696V1.759h7.039v3.488zm8.724.006l-.019 3.488-3.425-.012v1.766h-3.582V1.759h7.039l-.012 3.494zm12.204-.006v3.488h-1.76V3.519h-1.76v5.248l-1.76-.038v-5.21h-1.697v5.216h-3.519V1.759h10.495v3.488zm-15.648 0v1.728h1.634V3.518h-1.634v1.728z"/></symbol>
<symbol viewBox="0 0 22.65799903869629 22.704998016357422" aria-labelledby="fgsi-dev-phonegap-title" id="si-dev-phonegap"><title id="fgsi-dev-phonegap-title">icon phonegap</title><path d="M11.22.187c-.516.191-.852.568-1.017 1.136-.114.387-.114.506.124 7.828.114 3.522.238 7.601.284 9.062.057 1.921.103 2.762.16 3.031.191.898.909 1.461 1.869 1.461.361 0 8.298-1.348 8.701-1.477.367-.119.806-.547 1.007-.986.31-.676.31-.666.098-3.79-.289-4.244-.697-10.482-.785-12.067-.093-1.57-.15-1.854-.465-2.324-.227-.336-.718-.702-1.074-.811-.15-.041-1.058-.196-2.024-.336C12.051.036 11.711 0 11.22.186zm5.412 4.208c2.675.207 2.995.238 3.191.336.325.17.604.449.759.759.134.274.139.331.258 2.386.067 1.157.207 3.444.305 5.091.17 2.762.181 3.005.108 3.258-.145.48-.614.899-1.193 1.053-.361.093-6.279.687-6.614.661-.604-.046-1.084-.434-1.286-1.043-.067-.191-.098-.584-.134-1.549l-.207-5.639c-.145-4.007-.155-4.368-.077-4.621a1.25 1.25 0 0 1 .671-.795c.367-.17.697-.165 4.219.103zm-3.945.093c-.424.114-.707.542-.707 1.059 0 .248-.067.232 1.084.33.728.062 1.023.176 1.296.511.289.346.294.408.48 4.673.186 4.327.191 4.224-.093 4.596-.077.098-.279.243-.465.336-.284.139-.428.17-1.12.243a9.357 9.357 0 0 0-.816.098c-.041.036.119.578.237.785.067.119.212.279.315.346.336.222.573.232 1.916.093.671-.067 1.234-.145 1.25-.16.021-.021-.098-2.907-.258-6.413l-.289-6.377-1.084-.088c-1.255-.098-1.477-.103-1.745-.031zM6.563 2.34c-.387.103-.609.253-.785.532-.315.496-.305-.243-.15 8.189.139 7.632.155 8.081.31 8.432.222.516.687.821 1.394.914.212.026 2.974-.294 3.031-.356.021-.021-.083-3.506-.108-3.527-.005-.01-.475.031-1.043.088-1.064.108-1.337.098-1.663-.072-.294-.155-.537-.506-.625-.914-.026-.124-.088-2.251-.139-4.73-.103-5.076-.119-4.781.289-5.148.32-.289.496-.315 1.627-.243a18.47 18.47 0 0 1 1.105.093l.119.031-.031-1.131a47.988 47.988 0 0 0-.062-1.544l-.026-.418-1.379-.139c-1.559-.16-1.487-.16-1.864-.057zM2.7 4.886c-.403.103-.702.403-.769.774-.021.103-.01 1.766.026 3.697.103 5.757.15 7.286.222 7.523.093.315.387.589.749.692.284.083.351.083 1.203 0 .496-.052 1.002-.103 1.12-.119l.222-.031-.031-1.244a50.163 50.163 0 0 0-.046-1.255c-.005-.01-.336.01-.738.041-.904.072-1.141.041-1.389-.175-.346-.305-.33-.196-.413-3.79l-.072-3.258.109-.217a.62.62 0 0 1 .346-.32c.217-.098.299-.103 1.141-.067l.904.041-.036-1.053c-.015-.573-.046-1.059-.057-1.074-.031-.026-1.095-.124-1.91-.181a2.748 2.748 0 0 0-.578.015zm4.756.95c-.351.165-.516.563-.46 1.12l.036.346.573.026c.687.031.94.129 1.157.465l.145.217v6.17l-.155.165c-.232.248-.542.361-1.079.403l-.47.031-.015.284c-.041.645.186 1.095.64 1.27.207.078.3.083 1.022.021.439-.036.821-.083.857-.103.077-.047.072-.676-.026-5.06-.108-5.045-.119-5.205-.336-5.318-.052-.026-.465-.062-.914-.077-.64-.026-.852-.015-.976.041zM.33 7.937a.643.643 0 0 0-.222.186C0 8.257 0 8.293 0 10.436c0 1.193.016 2.51.036 2.917.031.671.041.754.15.883.165.191.423.248 1.048.217l.527-.026-.016-.651-.015-.651-.475-.026c-.759-.041-.707.098-.728-1.993C.511 9.149.506 9.17.883 9.072c.119-.036.33-.041.49-.021l.279.031V7.946l-.16-.031C1.26 7.869.459 7.884.33 7.936zm2.768.589v.547h.16c.212 0 .501.139.573.279.093.16.129 3.232.041 3.434-.067.165-.325.315-.537.315h-.134v.46c0 .253.016.532.031.62.031.155.041.16.325.16.33 0 .594-.114.744-.32.103-.134.103-.181.041-2.788-.057-2.287-.077-2.675-.15-2.824-.139-.284-.325-.387-.733-.408l-.361-.021v.547z"/></symbol>
<symbol viewBox="0 0 22.62200164794922 10.935001373291016" aria-labelledby="fisi-dev-php-title" id="si-dev-php"><title id="fisi-dev-php-title">icon php</title><path d="M5.682 2.251H1.715L0 10.935h2.037l.429-2.251h1.93c1.822.107 3.86-1.394 3.86-3.967 0-1.501-.858-2.359-2.573-2.466zM4.181 7.076H2.894L3.43 3.86h1.394c.75 0 1.287.322 1.287.965-.107 1.823-.965 2.144-1.93 2.251zm8.684-4.825h-1.93L11.364 0H9.327L7.612 8.684h2.037l.965-4.824h1.608c.751 0 .751.322.643.858l-.75 3.967h2.144l.75-4.396c.214-1.072-.429-1.93-2.144-2.037zm7.183 0h-3.967l-1.715 8.684h2.037l.429-2.251h1.93c1.823.107 3.86-1.394 3.86-3.967 0-1.501-.858-2.359-2.573-2.466zm-1.501 4.825H17.26l.536-3.216h1.394c.751 0 1.287.322 1.287.965-.107 1.823-.965 2.144-1.93 2.251z"/></symbol>
<symbol viewBox="0 0 21.902000427246094 22.737001419067383" aria-labelledby="fjsi-dev-postgresql-title" id="si-dev-postgresql"><title id="fjsi-dev-postgresql-title">icon postgresql</title><path d="M21.668 13.791c-.24-.278-.65-.202-.967-.139-.762.136-1.591.294-2.329-.023 1.318-2.08 2.355-4.351 2.935-6.748.211-.911.374-1.843.343-2.781-.023-.525-.096-1.084-.417-1.519A6.019 6.019 0 0 0 18.019.43C16.434 0 14.734.128 13.175.61c-.129.026-.256-.032-.382-.048-1.415-.287-2.975-.174-4.202.645C7.118.677 5.535.357 3.967.521 2.801.642 1.63 1.184.961 2.177.115 3.416 0 4.998.135 6.45c.272 1.928.742 3.826 1.34 5.677.394 1.154.828 2.317 1.529 3.325.356.495.829.994 1.466 1.072.566.069 1.078-.282 1.425-.698.6-.718 1.217-1.423 1.857-2.105.418.205.872.323 1.336.358-.251.298-.458.687-.858.804-.539.208-1.17.18-1.645.539-.274.196-.287.623-.041.848.445.432 1.101.525 1.693.575a3.21 3.21 0 0 0 2.324-.768c-.004 1.334.002 2.672.152 3.999.075.777.41 1.551 1.001 2.074.557.486 1.351.587 2.058.464.694-.132 1.407-.34 1.949-.814.576-.508.822-1.275.936-2.011a93.19 93.19 0 0 0 .514-3.969c1.483.25 3.161-.034 4.269-1.117.237-.223.462-.609.228-.912zM18.377 1.247c.89.338 1.681.925 2.275 1.668.283.355.319.832.337 1.268.013 1.04-.197 2.067-.464 3.067a21.858 21.858 0 0 1-2.262 5.277 4.38 4.38 0 0 1-.317.469 60.07 60.07 0 0 1-.036-.183c.121-.318.298-.618.367-.956.244-.953.038-1.934-.05-2.893-.092-.905.217-1.786.209-2.689.035-.442-.14-.86-.31-1.257-.615-1.375-1.593-2.598-2.848-3.438-.306-.21-.648-.357-.953-.568 1.334-.286 2.765-.25 4.051.234zm-.813 7.719c.078 1.071.389 2.221-.116 3.237-.677-1.347-1.552-2.633-1.857-4.133-.086-.477-.108-1.081.316-1.413.538-.382 1.241-.296 1.863-.258-.027.859-.291 1.702-.205 2.567zM5.461 15.311c-.243.286-.571.627-.985.542-.484-.14-.792-.582-1.062-.979-.729-1.166-1.168-2.483-1.571-3.79-.451-1.547-.831-3.119-1.05-4.717-.109-1.216-.041-2.52.581-3.603.466-.82 1.335-1.343 2.248-1.514 1.462-.281 2.961.017 4.364.445a6.438 6.438 0 0 0-1.382 2.358 9.506 9.506 0 0 0-.466 3.648c.053.867.03 1.738-.091 2.598-.152 1.123.299 2.278 1.133 3.036-.568.664-1.17 1.297-1.72 1.977zm1.28-4.023c-.143-.636.044-1.276.065-1.913.049-.721-.002-1.443-.016-2.164.674-.436 1.462-.777 2.279-.73a.992.992 0 0 1 .915.734c.371 1.477.486 3.121-.225 4.52a13.24 13.24 0 0 0-.622 1.666c-1.182.012-2.187-.987-2.396-2.112zm3.678 3.954c-.742 1.005-2.227 1.197-3.3.65.529-.245 1.148-.226 1.659-.528.494-.266.69-.851 1.152-1.152.503-.071.87.676.49 1.029zm6.364-1.174c-.282.454-.183 1.008-.252 1.512-.162 1.413-.321 2.828-.551 4.232-.109.673-.395 1.388-1.03 1.723-.651.331-1.407.539-2.139.426-.695-.122-1.133-.77-1.33-1.401-.144-.529-.159-1.082-.2-1.627a50.004 50.004 0 0 1-.037-3.949c.029-.514-.235-1.049-.694-1.299-.222-.125-.482-.142-.73-.162.195-.967.784-1.802.986-2.768.262-1.195.117-2.439-.151-3.619-.131-.589-.579-1.11-1.175-1.253-.918-.231-1.844.128-2.665.512.104-1.334.461-2.7 1.278-3.783a3.79 3.79 0 0 1 2.528-1.473c1.642-.209 3.366.243 4.671 1.27a7.406 7.406 0 0 1 2.389 3.304c-.763-.027-1.628-.058-2.245.472-.56.472-.632 1.277-.506 1.953.292 1.608 1.241 2.975 1.941 4.421.186.339.436.635.674.939-.283.143-.599.28-.76.571zm1.964 1.137c-.504.06-1.028.078-1.514-.089.002-.275-.013-.601.208-.806.175-.129.424-.248.626-.107.86.453 1.86.232 2.775.121-.559.544-1.333.798-2.095.881zm-2.642-8.347c-.179.147.014.367.168.436.373.219.884-.087.896-.513-.337-.157-.76-.141-1.065.077zm-6.602.68c.159-.09.327-.337.143-.486-.262-.213-.643-.254-.962-.168-.103.036-.211.106-.19.232.074.428.647.688 1.008.422z"/></symbol>
<symbol viewBox="0 0 22.773998260498047 22.919002532958984" aria-labelledby="flsi-dev-python-title" id="si-dev-python"><title id="flsi-dev-python-title">icon python</title><path d="M8.656 10.965h5.417c1.508 0 2.712-1.241 2.712-2.756V3.045c0-1.47-1.24-2.574-2.712-2.819C13.141.071 12.175 0 11.248.005S9.435.088 8.656.226C6.361.631 5.944 1.48 5.944 3.045v2.067h5.423v.689H3.908c-1.576 0-2.956.947-3.388 2.75-.498 2.066-.52 3.355 0 5.512.385 1.606 1.306 2.75 2.882 2.75h1.865v-2.478c0-1.79 1.549-3.369 3.388-3.369zm-.342-7.231a1.024 1.024 0 0 1-1.018-1.03c0-.572.455-1.037 1.018-1.037.56 0 1.018.465 1.018 1.037 0 .57-.457 1.03-1.018 1.03zM22.207 8.55c-.389-1.569-1.133-2.75-2.712-2.75H17.46v2.408c0 1.867-1.583 3.439-3.388 3.439H8.655c-1.484 0-2.712 1.27-2.712 2.756v5.164c0 1.47 1.278 2.334 2.712 2.756 1.717.505 3.363.596 5.417 0 1.365-.395 2.712-1.191 2.712-2.756V17.5h-5.417v-.689h8.129c1.576 0 2.163-1.099 2.712-2.75.566-1.699.542-3.332 0-5.512zm-7.793 10.329c.562 0 1.018.461 1.018 1.03 0 .572-.456 1.037-1.018 1.037a1.03 1.03 0 0 1-1.018-1.037c0-.57.457-1.03 1.018-1.03z"/></symbol>
<symbol viewBox="0 0 22.685998916625977 22.27100372314453" aria-labelledby="fusi-dev-ror-title" id="si-dev-ror"><title id="fusi-dev-ror-title">icon ror</title><path d="M2.457 22.27h11.072s-2.456-5.578-1.832-10.698 4.662-7.451 6.951-7.701c2.289-.25 3.538 1.166 3.538 1.166l.5-.749s-3.288-3.33-7.451-2.955S8.2 4.455 6.411 7.785c-1.79 3.33-2.831 5.661-3.538 9.158s-.416 5.328-.416 5.328zM.251 16.692l2.164.167-.375 2.164-2.04-.25.25-2.081zm3.413-4.579l.583-1.623-1.915-.749-.624 1.748 1.956.624zM6.37 6.535l1.124-1.332-1.457-.957-1.165 1.29 1.498.999zm2.955-5.161l.999 1.207 1.374-.791-.999-1.124-1.374.708zM14.195 0l.25 1.207 1.707-.042-.167-1.082L14.195 0zm5.786 1.29l-.042.749 1.166.624.25-.375-1.373-.999zm-.25 3.206v.624l1.124.125v-.5l-1.124-.25zm-3.579.541l.541.999.791-.624-.166-.666-1.165.292zm-1.707 1.29l.832 1.249-.499.874-1.207-1.332.874-.791zM12.78 9.782l-.541 1.082 1.415 1.207.333-1.374-1.207-.916zm-.583 3.788l-.083 1.457 1.748.749-.083-1.374-1.582-.833zm.5 5.161l.417 1.499 2.206.125-.791-1.623h-1.832z"/></symbol>
<symbol viewBox="0 0 28.071998596191406 26.912002563476562" aria-labelledby="fvsi-dev-ruby-title" id="si-dev-ruby"><title id="fvsi-dev-ruby-title">icon ruby</title><path d="M7.693 24.165l18.544 2.532-6.27-10.441-12.273 7.909zM27.992 4.62c-.548.823-1.097 1.645-1.644 2.468-1.879 2.827-3.758 5.654-5.635 8.482-.105.158-.24.283-.093.525 1.814 2.995 3.613 5.999 5.417 9 .285.474.572.946.941 1.401l1.094-21.852-.08-.023zm-24.76 9.338c.085.081.296.127.395.079 1.74-.855 3.491-1.691 5.192-2.617.555-.302.982-.842 1.46-1.281 1.583-1.452 3.164-2.907 4.744-4.362.097-.089.211-.176.269-.288.568-1.109 1.125-2.224 1.703-3.371-.689-.259-1.341-.512-2.002-.742-.089-.031-.231.031-.328.085-1.53.854-3.088 1.663-4.569 2.595-.741.466-1.345 1.154-2.001 1.752a263.561 263.561 0 0 0-3.156 2.915 5.385 5.385 0 0 0-.744.872c-.713 1.038-1.404 2.091-2.127 3.173.404.419.772.819 1.165 1.191zM9.59 12.54L6.975 23.587l12.286-7.916-9.671-3.13zm17.339-7.885L16.487 6.399l3.544 8.62L26.93 4.655zM9.735 11.792l9.479 3.077a46701.83 46701.83 0 0 0-3.506-8.538l-5.973 5.461zM3.363 16.09L.046 24.02l6.318-.187-3.001-7.744zm3.075 5.905l.079-.017c.758-3.154 1.528-6.287 2.303-9.565l-5.069 2.635c.864 2.246 1.785 4.615 2.688 6.947zM25.654 4.144l-3.027-.801c-1.451-.381-2.903-.758-4.353-1.143-.181-.048-.312-.08-.419.139-.512 1.05-1.041 2.092-1.561 3.138-.016.032-.013.074-.025.155l9.383-1.422.002-.066zm-5.853-2.388l8.223 2.275L26.665.159l-6.852 1.519-.012.077zM7.136 24.771c-1.019-.117-2.064-.009-3.097.008-.849.015-1.697.047-2.545.073a.338.338 0 0 0-.262.114l21.044 1.946.014-.094-6.746-.921c-2.802-.383-5.599-.803-8.408-1.127zM.184 21.6c.904-2.097 1.804-4.197 2.712-6.292.091-.21.084-.353-.094-.522-.38-.361-.732-.751-1.147-1.182L0 21.775l.061.029c.042-.067.093-.131.124-.203zM18 1.202C19.524.809 21.071.501 22.608.158c.099-.022.197-.055.295-.083L22.888 0l-6.606.889c.62.271 1.098.473 1.718.314z"/></symbol>
<symbol viewBox="0 0 31.360998153686523 23.40199851989746" aria-labelledby="fzsi-dev-sass-title" id="si-dev-sass"><title id="fzsi-dev-sass-title">icon sass</title><path d="M31.315 16.579c-.109-.911-.578-1.618-1.286-2.172-.82-.641-1.78-.905-2.803-.947a6.327 6.327 0 0 0-2.437.376c-.224.081-.444.177-.67.268-.03-.055-.062-.107-.088-.162-.232-.474-.512-.927-.573-1.47-.044-.386-.098-.772-.006-1.153.088-.367.204-.728.312-1.091.056-.187.017-.291-.161-.375a.724.724 0 0 0-.197-.065 3.04 3.04 0 0 0-1.293.096c-.15.044-.259.128-.292.294-.019.095-.058.186-.084.28-.111.391-.189.789-.368 1.161-.449.934-.96 1.832-1.485 2.724-.057.096-.116.191-.188.308-.184-.385-.38-.73-.44-1.136-.067-.458-.12-.915-.006-1.37.085-.339.196-.672.298-1.006.049-.159.026-.242-.118-.326a.696.696 0 0 0-.237-.092 2.904 2.904 0 0 0-1.338.11c-.136.044-.207.132-.249.272-.122.413-.226.836-.397 1.229a429.556 429.556 0 0 1-2.12 4.753c-.149.33-.323.649-.491.97-.043.082-.104.153-.157.23-.043-.05-.059-.085-.059-.119.001-.203-.023-.413.016-.609.117-.594.252-1.186.395-1.775.117-.486.254-.968.385-1.452.044-.162.045-.313-.072-.449-.195-.228-.603-.278-.845-.102-.026.019-.057.032-.107.061.009-.077.014-.125.021-.173.051-.37.061-.738-.04-1.103-.127-.454-.45-.715-.921-.701a1.98 1.98 0 0 0-.653.124c-.855.335-1.512.928-2.071 1.642a.64.64 0 0 1-.189.163c-.723.401-1.449.797-2.174 1.195l-.807.442c-.216-.207-.413-.421-.637-.603-.682-.556-1.375-1.098-2.061-1.648-.608-.487-1.198-.995-1.649-1.64-.336-.48-.552-1.005-.572-1.599-.026-.756.188-1.447.573-2.091.493-.823 1.164-1.483 1.903-2.082.781-.633 1.626-1.17 2.502-1.66 1.225-.686 2.486-1.293 3.837-1.694 1.386-.411 2.791-.646 4.241-.482.57.064 1.123.195 1.632.474.389.213.708.492.857.929.146.43.142.865.04 1.301-.206.883-.69 1.612-1.299 2.263-.998 1.067-2.216 1.793-3.588 2.273a9.843 9.843 0 0 1-2.441.521c-.682.057-1.35-.003-1.996-.241a2.597 2.597 0 0 1-1.1-.747c-.054-.063-.122-.13-.222-.072-.098.057-.115.151-.082.245.055.157.105.319.191.459.214.351.527.606.871.825.661.42 1.399.561 2.165.594 1.162.05 2.296-.123 3.413-.435 1.596-.445 2.983-1.231 4.096-2.471.927-1.032 1.588-2.198 1.73-3.605.069-.687-.004-1.36-.326-1.986-.349-.679-.903-1.147-1.566-1.494C16.868.257 15.826.058 14.751 0h-1.077a12.844 12.844 0 0 0-3.786.782c-.926.337-1.835.717-2.717 1.157-1.921.96-3.71 2.108-5.179 3.699C1.26 6.431.64 7.301.284 8.331c-.104.302-.168.622-.243.934-.006.026.023.051-.041.077v.44c.064.113.071.225.1.338.189.733.578 1.363 1.06 1.937.687.818 1.518 1.476 2.38 2.096.747.537 1.505 1.062 2.255 1.595.129.091.248.197.388.309-.12.065-.221.122-.325.175-.99.502-1.942 1.065-2.82 1.747-.529.411-1.041.848-1.402 1.418-.581.918-.787 1.896-.354 2.94.127.305.32.569.592.763a.863.863 0 0 0 .29.15c.264.062.534.103.802.152h.758a4.714 4.714 0 0 0 2.291-.838c1.078-.744 1.804-1.741 2.117-3.022.227-.93.236-1.862-.031-2.788-.025-.086-.056-.17-.089-.253s-.071-.164-.116-.268l1.719-.989.026.022c-.031.102-.064.204-.093.308-.204.746-.34 1.505-.291 2.279.052.825.282 1.597.765 2.287.39.558 1.321.578 1.736.019a4 4 0 0 0 .397-.628c.28-.579.54-1.168.807-1.753l.047-.107c-.019.277-.042.52-.052.764-.016.38.006.758.136 1.12.111.31.3.541.655.581.242.028.436-.083.614-.224.279-.22.505-.491.673-.8.475-.873.963-1.74 1.394-2.635.466-.968.873-1.964 1.306-2.948.024-.054.045-.109.072-.175.102.402.174.795.305 1.168.152.432.341.854.547 1.264.097.194.086.32-.049.482-.564.68-1.118 1.368-1.673 2.056a4.542 4.542 0 0 0-.347.472.915.915 0 0 0-.12.341.434.434 0 0 0 .346.493c.219.047.453.065.677.048a3.972 3.972 0 0 0 2.099-.789c.805-.597 1.064-1.41.869-2.375-.053-.262-.146-.517-.237-.769-.041-.114-.043-.194.031-.3.644-.919 1.194-1.895 1.705-2.892a.613.613 0 0 1 .076-.121c.166.863.415 1.694.862 2.448-.228.22-.454.419-.658.639-.45.483-.84 1.009-1.043 1.649-.087.276-.155.556-.116.852.061.458.436.755.886.651.963-.223 1.795-.677 2.403-1.481.409-.541.446-1.145.275-1.778-.047-.172-.103-.341-.163-.539.238-.074.47-.162.709-.217 1.245-.284 2.476-.234 3.675.215.7.262 1.266.702 1.601 1.393.41.845.183 1.646-.613 2.18-.074.05-.159.089-.221.151a.216.216 0 0 0-.051.167c.005.031.087.069.133.069.262-.002.474-.139.678-.28.511-.353.848-.829.928-1.454.002-.018-.024-.035.04-.052v-.416c-.064-.017-.037-.034-.039-.052zM6.96 18.269c-.083 1.115-.588 2.019-1.414 2.75-.465.412-.997.705-1.618.808-.225.037-.455.046-.674-.047-.311-.133-.381-.409-.387-.704-.009-.469.155-.893.38-1.296.294-.526.725-.927 1.185-1.301.725-.59 1.512-1.09 2.317-1.561.013-.008.029-.012.061-.025.124.46.184.914.149 1.377zm6.29-4.845a8.45 8.45 0 0 1-.236 1.057c-.36 1.194-.821 2.352-1.32 3.493-.092.211-.226.404-.343.604-.018.031-.045.058-.071.084-.144.143-.282.135-.355-.052a3.93 3.93 0 0 1-.182-.679c-.03-.154-.023-.316-.032-.474.01-1.123.352-2.145.934-3.095.24-.392.501-.765.899-1.014a1.62 1.62 0 0 1 .399-.177c.212-.06.343.039.308.252zm4.291 5.467l1.542-1.801c.064.669-1.072 2.004-1.542 1.801zm4.926-1.211c-.109.062-.228.108-.34.165-.102.053-.136 0-.139-.088a.61.61 0 0 1 .023-.18 3.866 3.866 0 0 1 1.162-1.871c.008-.008.021-.011.04-.021a1.651 1.651 0 0 1-.747 1.995z"/></symbol>
<symbol viewBox="0 0 21.07900047302246 21.078998565673828" aria-labelledby="gmsi-dev-sublime-title" id="si-dev-sublime"><title id="gmsi-dev-sublime-title">icon sublime</title><path d="M0 10.54v10.539h21.079V0H0v10.539zm11.951-5.208c.228.056.448.124.655.203.452.173 1.065.378 1.476.789.166.166.146.215-.234.761-.224.312-.439.615-.478.664-.049.049-.171-.039-.566-.224-.794-.373-1.522-.712-2.323-.712-1.122 0-1.698.429-1.698 1.278 0 .781.537 1.132 2.44 1.62 2.508.644 3.396 1.493 3.357 3.23-.025 1.104-.863 2.233-1.841 2.661-1.11.486-2.413.418-3.55.066a9.36 9.36 0 0 1-1.839-.779c-.211-.12-.5-.301-.68-.481-.197-.197-.096-.235.083-.462.137-.185.381-.478.537-.654l.273-.332.654.439c.947.634 1.62.859 2.576.869.947.01 1.425-.185 1.776-.703.185-.264.224-.429.176-.732-.068-.585-.527-.956-1.591-1.269-2.342-.703-2.752-.849-3.123-1.113-.468-.342-.839-.81-.995-1.269-.156-.468-.137-1.454.049-1.981.689-1.958 3.046-2.314 4.866-1.87z"/></symbol>
<symbol viewBox="0 0 22.511999130249023 19.295997619628906" aria-labelledby="grsi-dev-terminal-title" id="si-dev-terminal"><title id="grsi-dev-terminal-title">icon terminal</title><path d="M20.904 0H1.608C.72 0 0 .72 0 1.608v16.08c0 .888.72 1.608 1.608 1.608h19.296c.888 0 1.608-.72 1.608-1.608V1.608C22.512.72 21.792 0 20.904 0zM3.216 11.256L6.432 8.04 3.216 4.824l1.608-1.608L9.648 8.04l-4.824 4.824-1.608-1.608zm12.864 1.608H9.648v-1.608h6.432v1.608z"/></symbol>
<symbol viewBox="0 0 24.963001251220703 24.964000701904297" aria-labelledby="gusi-dev-trello-title" id="si-dev-trello"><title id="gusi-dev-trello-title">icon trello</title><path d="M11.441 19.763V3.121c0-.152-.049-.276-.146-.374s-.222-.146-.374-.146H3.12c-.152 0-.276.049-.374.146s-.146.222-.146.374v16.642c0 .152.049.276.146.374s.222.146.374.146h7.801c.152 0 .276-.049.374-.146s.146-.222.146-.374zm10.921-6.241V3.121c0-.152-.049-.276-.146-.374s-.222-.146-.374-.146h-7.801c-.152 0-.276.049-.374.146s-.146.222-.146.374v10.401c0 .152.049.276.146.374s.222.146.374.146h7.801c.152 0 .276-.049.374-.146s.146-.222.146-.374zM24.963 1.04v22.883c0 .282-.103.526-.309.732s-.45.309-.731.309H1.04c-.282 0-.525-.103-.731-.309S0 24.205 0 23.923V1.04C0 .758.103.514.309.309S.759 0 1.04 0h22.883c.282 0 .526.103.731.309s.309.45.309.731z"/></symbol>
<symbol viewBox="0 0 22.625999450683594 22.626001358032227" aria-labelledby="gwsi-dev-ubuntu-title" id="si-dev-ubuntu"><title id="gwsi-dev-ubuntu-title">icon ubuntu</title><path d="M11.313 0C5.065 0 0 5.065 0 11.313s5.065 11.313 11.313 11.313 11.313-5.065 11.313-11.313S17.561 0 11.313 0zm2.538 3.896a1.511 1.511 0 1 1 2.618 1.511 1.512 1.512 0 0 1-2.619-1.511zm-2.538.855c.608 0 1.195.084 1.753.238.098.607.459 1.166 1.033 1.498s1.237.364 1.811.147a6.54 6.54 0 0 1 1.95 4.256l-2.152.032a4.412 4.412 0 0 0-6.252-3.611L8.406 5.43a6.538 6.538 0 0 1 2.908-.679zM3.62 12.823a1.51 1.51 0 1 1-.002-3.02 1.51 1.51 0 0 1 .002 3.02zm1.339.135c.477-.389.782-.981.782-1.645s-.305-1.256-.782-1.645a6.577 6.577 0 0 1 2.713-3.814l1.104 1.85C7.641 8.503 6.9 9.821 6.9 11.314s.741 2.811 1.876 3.609l-1.104 1.85a6.568 6.568 0 0 1-2.713-3.815zm10.956 6.324a1.51 1.51 0 1 1-1.509-2.614 1.51 1.51 0 0 1 1.508 2.614zm-.005-3.291a2.12 2.12 0 0 0-2.844 1.645 6.542 6.542 0 0 1-4.661-.441l1.05-1.881a4.411 4.411 0 0 0 6.252-3.611l2.153.032a6.54 6.54 0 0 1-1.95 4.256z"/></symbol>
<symbol viewBox="0 0 22.433998107910156 22.999000549316406" aria-labelledby="hdsi-dev-windows-title" id="si-dev-windows"><title id="hdsi-dev-windows-title">icon windows</title><path d="M9.038 10.975H0V3.228l9.038-1.291zm13.396 0H10.249V1.777L22.434 0zM9.038 12.024H0v7.747l9.038 1.291zm13.396 0H10.249v9.198l12.185 1.777z"/></symbol>
<symbol viewBox="0 0 22.609132766723633 22.822879791259766" aria-labelledby="hesi-dev-wordpress-title" id="si-dev-wordpress"><title id="hesi-dev-wordpress-title">icon wordpress</title><path d="M.001 11.309a11.3 11.3 0 0 0 6.371 10.17L.982 6.708a11.256 11.256 0 0 0-.98 4.602zm18.935-.571c0-1.397-.503-2.365-.932-3.118-.573-.932-1.109-1.72-1.109-2.652 0-1.04.785-2.006 1.898-2.006.048 0 .097.007.145.01A11.26 11.26 0 0 0 11.306.004C7.356.004 3.882 2.03 1.862 5.1c.266.008.515.014.727.014 1.183 0 3.013-.145 3.013-.145.608-.034.68.859.071.932 0 0-.61.07-1.293.108l4.117 12.243 2.474-7.418L9.21 6.009A21.832 21.832 0 0 1 8.024 5.9c-.61-.037-.537-.966.073-.932 0 0 1.865.145 2.976.145 1.182 0 3.014-.145 3.014-.145.607-.034.68.859.07.932 0 0-.61.07-1.292.108l4.085 12.15 1.128-3.766c.573-1.47.861-2.686.861-3.655zm-7.432 1.56l-3.393 9.856a11.317 11.317 0 0 0 6.948-.183 1.07 1.07 0 0 1-.08-.154l-3.475-9.52zm9.72-6.413c.05.36.078.747.078 1.164 0 1.146-.215 2.435-.86 4.049l-3.454 9.98a11.292 11.292 0 0 0 5.62-9.768c0-1.967-.503-3.814-1.385-5.425z"/></symbol>
<symbol viewBox="0 0 34 26" aria-labelledby="ausi-evil-envelope-title" id="si-evil-envelope"><title id="ausi-evil-envelope-title">icon envelope</title><path d="M23.796 12.244l9.97 9.97-1.415 1.414-9.97-9.97zm-13.518.043l1.414 1.414-9.9 9.9-1.414-1.41z" opacity=".9"/><path d="M17 17.9c-1.5 0-3.1-.6-4.2-1.8L.3 3.7l1.4-1.4 12.5 12.5c1.6 1.6 4.1 1.6 5.7 0L32.4 2.3l1.4 1.4-12.6 12.5c-1.1 1.1-2.7 1.7-4.2 1.7z"/><path d="M31 26H3c-1.7 0-3-1.3-3-3V3c0-1.7 1.3-3 3-3h28c1.7 0 3 1.3 3 3v20c0 1.7-1.3 3-3 3zM3 2c-.6 0-1 .4-1 1v20c0 .6.4 1 1 1h28c.6 0 1-.4 1-1V3c0-.6-.4-1-1-1H3z"/></symbol>
<symbol viewBox="0 0 30 29.300003051757812" aria-labelledby="brsi-evil-sc-github-title" id="si-evil-sc-github"><title id="brsi-evil-sc-github-title">icon sc-github</title><path fill-rule="evenodd" d="M15 0C6.7 0 0 6.7 0 15c0 6.6 4.3 12.2 10.3 14.2.8.1 1-.3 1-.7v-2.6c-4.2.9-5.1-2-5.1-2-.7-1.7-1.7-2.2-1.7-2.2-1.4-.9.1-.9.1-.9 1.5.1 2.3 1.5 2.3 1.5 1.3 2.3 3.5 1.6 4.4 1.2.1-1 .5-1.6 1-2-3.3-.4-6.8-1.7-6.8-7.4 0-1.6.6-3 1.5-4-.2-.4-.7-1.9.1-4 0 0 1.3-.4 4.1 1.5 1.2-.3 2.5-.5 3.8-.5 1.3 0 2.6.2 3.8.5 2.9-1.9 4.1-1.5 4.1-1.5.8 2.1.3 3.6.1 4 1 1 1.5 2.4 1.5 4 0 5.8-3.5 7-6.8 7.4.5.5 1 1.4 1 2.8v4.1c0 .4.3.9 1 .7 6-2 10.2-7.6 10.2-14.2C30 6.7 23.3 0 15 0z" clip-rule="evenodd"/></symbol>
<symbol viewBox="0 0 26 26" aria-labelledby="busi-evil-sc-linkedin-title" id="si-evil-sc-linkedin"><title id="busi-evil-sc-linkedin-title">icon sc-linkedin</title><path d="M24.1 0H1.9C.8 0 0 .8 0 1.9v22.2c0 1 .9 1.9 1.9 1.9h22.2c1.1 0 1.9-.8 1.9-1.9V1.9C26 .8 25.1 0 24.1 0zM8 22H4V10h4v12zM6 8.4C4.7 8.4 3.6 7.3 3.6 6c0-1.3 1.1-2.4 2.4-2.4 1.3 0 2.4 1.1 2.4 2.4 0 1.3-1.1 2.4-2.4 2.4zM22 22h-4v-6c0-1.6-.4-3.2-2-3.2s-2 1.6-2 3.2v6h-4V10h4v1.4h.2c.5-1 1.8-1.8 3.3-1.8C21.2 9.6 22 12 22 15v7z"/></symbol>
<symbol viewBox="0 0 29.200002670288086 23.900001525878906" aria-labelledby="cbsi-evil-sc-twitter-title" id="si-evil-sc-twitter"><title id="cbsi-evil-sc-twitter-title">icon sc-twitter</title><path d="M29.2 2.7c-1.1.5-2.2.8-3.5 1 1.2-.8 2.2-1.9 2.7-3.3-1.2.7-2.5 1.2-3.8 1.5C23.5.7 21.9 0 20.2 0c-3.3 0-6.1 2.7-6.1 6.1 0 .5.1.9.2 1.4-5-.2-9.5-2.7-12.5-6.3C1.3 1.9 1 2.9 1 4c0 2.1 1.1 4 2.7 5-1 0-1.9-.3-2.7-.8v.1c0 2.9 2.1 5.4 4.9 5.9-.5.1-1 .2-1.6.2-.4 0-.8 0-1.1-.1.8 2.4 3 4.2 5.7 4.2-2.1 1.6-4.7 2.6-7.5 2.6-.5 0-1 0-1.4-.1 2.4 1.9 5.6 2.9 9 2.9 11.1 0 17.2-9.2 17.2-17.2v-.8c1.2-.9 2.2-1.9 3-3.2z"/></symbol>
  </defs>
</svg>